<svg width="720" height="720" xmlns="http://www.w3.org/2000/svg" xmlns:xlink="http://www.w3.org/1999/xlink" xml:space="preserve" overflow="hidden"><g transform="translate(-280 0)"><path d="M785.355 317.561 838.219 326.201C842.549 326.906 845.722 330.645 845.714 335.029L845.714 384.22C845.714 388.558 842.6 392.279 838.316 393.03L785.381 402.323C782.313 412.93 778.101 423.147 772.796 432.805L804.085 476.247C806.652 479.805 806.25 484.699 803.155 487.803L768.376 522.604C765.301 525.672 760.469 526.109 756.91 523.597L713.034 492.819C703.357 498.204 693.079 502.498 682.354 505.653L673.007 558.334C672.256 562.603 668.543 565.714 664.205 565.714L615.008 565.714C610.634 565.714 606.903 562.557 606.199 558.255L597.466 505.833C586.76 502.74 576.429 498.471 566.652 493.097L523.09 523.605C519.539 526.101 514.7 525.672 511.632 522.604L476.854 487.803C473.768 484.699 473.366 479.823 475.906 476.272L506.686 433.227C501.256 423.404 496.944 413.038 493.823 402.279L441.665 393.03C437.398 392.271 434.286 388.558 434.286 384.22L434.286 335.029C434.286 330.663 437.452 326.924 441.764 326.209L493.921 317.525C497.061 306.738 501.372 296.372 506.784 286.578L476.38 243.083C473.885 239.532 474.314 234.702 477.382 231.634L512.151 196.869C515.255 193.783 520.112 193.371 523.681 195.92L566.885 226.778C576.59 221.465 586.894 217.234 597.628 214.149L606.181 161.79C606.885 157.461 610.624 154.286 615.008 154.286L664.205 154.286C668.553 154.286 672.264 157.416 673.015 161.691L682.238 214.336C692.91 217.44 703.195 221.715 712.936 227.1L756.257 195.965C759.816 193.398 764.701 193.801 767.805 196.895L802.591 231.661C805.659 234.738 806.089 239.577 803.592 243.128L772.732 287.106C778.029 296.756 782.259 306.952 785.355 317.561ZM577.386 360C577.386 394.578 605.419 422.609 640 422.609 674.581 422.609 702.614 394.578 702.614 360 702.614 325.422 674.581 297.391 640 297.391 605.419 297.391 577.386 325.422 577.386 360Z" fill="#FFFFFF" fill-rule="evenodd"/></g></svg>